<svg class="icon" viewBox="0 0 1024 1024" version="1.1" xmlns="http://www.w3.org/2000/svg" width="200" height="200">
    <path d="M654.6 823.7H541.9v-50.6c0-15.4-12.5-27.9-27.9-27.9-15.4 0-27.9 12.5-27.9 27.9v50.6H373.4c-15.4 0-27.9 12.5-27.9 27.9 0 15.4 12.5 27.9 27.9 27.9h281.2c15.4 0 27.9-12.5 27.9-27.9 0-15.4-12.5-27.9-27.9-27.9zM902.8 144.4h-781c-30.8 0-55.7 25-55.7 55.7v452.7c0 30.8 24.9 55.7 55.7 55.7h781c30.8 0 55.7-24.9 55.7-55.7V200.1c0.1-30.8-24.9-55.7-55.7-55.7zM121.9 652.8v-40.2h536.2c10.3 0 18.6-8.3 18.6-18.6s-8.3-18.6-18.6-18.6H121.9V200.1h781v375.4H771.2c-10.3 0-18.6 8.3-18.6 18.6s8.3 18.6 18.6 18.6h131.7v40.2h-781z"
          fill="#4F4F4F"></path>
</svg>